<?xml version="1.0" encoding="utf-8"?>
<!-- Generator: Adobe Illustrator 14.0.0, SVG Export Plug-In . SVG Version: 6.00 Build 43363)  -->
<!DOCTYPE svg PUBLIC "-//W3C//DTD SVG 1.1//EN" "http://www.w3.org/Graphics/SVG/1.1/DTD/svg11.dtd">
<svg version="1.1" id="Layer_1" xmlns="http://www.w3.org/2000/svg" xmlns:xlink="http://www.w3.org/1999/xlink" x="0px" y="0px"
	 width="461px" height="387px" viewBox="0 0 461 387" enable-background="new 0 0 461 387" xml:space="preserve">
<g>
	<path fill-rule="evenodd" clip-rule="evenodd" fill="#C9320D" d="M157.155,45.675c9.348,5.276,15.586,8.809,26,8
		c9.497-0.737,17.803-7.327,27-7c12.122,0.431,22.984,14.811,37,16c6.658,0.565,12.903-2.472,19-2c9.212,0.712,15.959,8.708,26,10
		c10.535,1.355,22.282-3.047,34-1c11.928,2.083,22.886,5.135,34,7c8.865,1.488,19.169,2.715,25,9c-14.536-1.802-22.477,13.368-35,15
		c-4.848,0.632-10.056-2.613-15-2c-9.587,1.189-15.288,10.941-21,17c9.064,18.068,32.566,16.172,48,26
		c6.718,4.277,11.627,10.636,18,15c6.971,4.772,15.398,5.446,21,12c-6.676-0.41-11.57,3.946-18,4c-4.636,0.039-9.074-3.063-14-3
		c-6.179,0.079-11.372,4.689-18,5c-7.76,0.363-14.415-5.412-22-5c-10.105,0.548-16.483,14.081-26,16
		c-10.043,2.026-16.643-5.564-26-6c-12.246-0.57-23.827,9.679-38,10c-22.067,0.5-38.778-19.366-59-2
		c-0.889,10.111,0.066,22.066-4,29c4.445-55.049,1.738-115.936-18-153c0.584,56.919,5.448,112.453,7,168
		c-5.449-21.732-5.831-47.256-7-73c-0.857-18.882-2.154-38.382-3-57c-0.896-19.712,0.883-40.494-6-57
		c-2.693,60.446,8.082,127.511,2,189c-2.89-69.905-3.406-137.229-9-204c5.567-4.086,15.495-6.058,18,1
		C162.584,37.519,155.729,39.635,157.155,45.675z M153.155,39.675c2.024-1.643,3.99-3.344,4-7
		C151.541,20.684,138.428,39.739,153.155,39.675z M221.155,104.675c-11.05-0.717-17.883,2.783-27,4c5.289,8.377,15.537,11.797,22,19
		c-3.359,8.641-5.035,18.965-8,28c12.177-1.642,16.653-16.625,28-16c8.46,0.466,12.605,10.632,22,13c-0.01-10.323-3.97-16.697-6-25
		c4.342-9.716,18.591-14.666,21-23c-9,0-18,0-27,0c-4.612-8.72-7.077-19.589-14-26C227.398,86.251,227.074,98.261,221.155,104.675z"
		/>
	<path fill-rule="evenodd" clip-rule="evenodd" fill="#FFFFFF" d="M157.155,32.675c-0.01,3.656-1.976,5.357-4,7
		C138.428,39.739,151.541,20.684,157.155,32.675z"/>
	<path fill-rule="evenodd" clip-rule="evenodd" fill="#FFFFFF" d="M232.155,78.675c6.922,6.411,9.387,17.28,14,26c9,0,18,0,27,0
		c-2.409,8.334-16.658,13.284-21,23c2.03,8.303,5.99,14.677,6,25c-9.395-2.368-13.54-12.534-22-13
		c-11.347-0.625-15.822,14.358-28,16c2.965-9.035,4.641-19.359,8-28c-6.463-7.203-16.711-10.623-22-19c9.117-1.217,15.95-4.717,27-4
		C227.074,98.261,227.398,86.251,232.155,78.675z"/>
	<path fill-rule="evenodd" clip-rule="evenodd" fill="#C9320D" d="M395.154,184.675c5.349,0.651,13.313-1.313,17,1
		C406.807,185.023,398.842,186.988,395.154,184.675z"/>
	<path fill-rule="evenodd" clip-rule="evenodd" d="M55.155,208.675c-2.292,5.042-7.934,6.732-10,12c2.266,1.715,10.522-1.927,13,0
		c-0.238,5.762-4.884,7.116-7,11c4.436,2.072,9.443-3.867,16-3c-4.854,6.479-13.739,8.927-24,10c-2.782-6.009,5.322-7.376,6-13
		c-3.706-2.988-7.341,2.621-13,1C39.7,218.475,47.396,209.355,55.155,208.675z"/>
	<path fill-rule="evenodd" clip-rule="evenodd" d="M404.154,212.675c2.859,3.837-2.409,6.46-3,10c0.353,3.314,2.996,4.338,5,6
		c3.98-0.687,2.376-6.958,7-7c2.392,2.685-1.335,5.315-2,8c-0.071,3.405,2.942,3.725,5,5c4.977-1.357,2.75-9.917,8-11
		c2.889,7.438-3.864,13.311-6,19c-7.746-5.253-14.761-11.239-23-16C397.504,221.357,398.781,214.968,404.154,212.675z"/>
	<path fill-rule="evenodd" clip-rule="evenodd" fill="#C9320D" d="M340.154,231.675c0,4,0,8,0,12
		C338.496,241.95,338.496,233.399,340.154,231.675z"/>
	<path fill-rule="evenodd" clip-rule="evenodd" d="M74.155,238.675c0.472,4.806-6.109,2.557-5,8c0.652,3.015,3.927,3.406,5,6
		c5.336,1.206,5.979-6.043,10-3c-1.233,6.551-10.249,13.664-18,17c-2.339-2.839,2.879-4.525,4-7c0.639-5.973-3.489-7.177-6-10
		c-4.326,0.341-4.465,4.869-10,4C57.774,246.672,67.713,236.295,74.155,238.675z"/>
	<path fill-rule="evenodd" clip-rule="evenodd" d="M411.154,251.675c-6.757,4.284-12.632,3.827-24,4c-1.095,9.48,13.631,7.17,10,16
		c-7.443-4.556-13.375-10.625-19-17c5.655-3.679,17.476-1.191,23-5c-2.582-5.084-9.713-5.62-11-12
		C398.477,237.138,406.022,245.72,411.154,251.675z"/>
	<path fill-rule="evenodd" clip-rule="evenodd" d="M113.155,244.675c2.082-2.339,5.809,2.134,8,3
		C119.089,249.997,116.04,244.847,113.155,244.675z"/>
	<path fill-rule="evenodd" clip-rule="evenodd" d="M111.155,248.675c3.009-2.618,6.197,3.093,10,3
		C118.105,254.333,114.287,249.253,111.155,248.675z"/>
	<path fill-rule="evenodd" clip-rule="evenodd" fill="#C9320D" d="M134.155,252.675c1.659,2.051,1.659,10.949,0,13
		C134.155,261.342,134.155,257.008,134.155,252.675z"/>
	<path fill-rule="evenodd" clip-rule="evenodd" d="M113.155,254.675c3.795-2.421,8.147,3.156,12,4
		C121.625,260.831,117.433,255.094,113.155,254.675z"/>
	<path fill-rule="evenodd" clip-rule="evenodd" d="M110.155,257.675c5.903-1.551,12.071,5.249,18,7
		C122.672,265.807,116.406,259.104,110.155,257.675z"/>
	<path fill-rule="evenodd" clip-rule="evenodd" d="M93.155,260.675c-4.303,7.251-10.527,17.171-19,17
		C78.054,270.157,85.112,260.744,93.155,260.675z"/>
	<path fill-rule="evenodd" clip-rule="evenodd" d="M99.155,267.675c5.495,3.505,12.588,5.412,14,13c-3.589,0.589-4.838-1.162-7-2
		c-5.041,4.626-10.58,8.754-14,15c-1.479-0.521-2.521-1.479-4-2c3.352-6.981,10.436-10.23,14-17
		C99.902,272.728,96.881,271.555,99.155,267.675z"/>
	<path fill-rule="evenodd" clip-rule="evenodd" d="M386.154,287.675c-7.037-1.73-15.575-10.35-20-18
		C374.505,269.485,384.91,280.759,386.154,287.675z"/>
	<path fill-rule="evenodd" clip-rule="evenodd" d="M121.155,284.675c6.667,0.999,11.31,4.023,12,11c-3.642-0.691-4.611-4.056-9-4
		c-3.14-0.473-2.642,2.691-5,3c0.451,2.882,3.539,3.128,3,7c-5.902-0.723-9.177-1.05-11,4c2.043,3.981,10.607,4.419,7,11
		c-5.861-2.139-9.701-6.299-14-10C108.465,297.985,117.482,294.003,121.155,284.675z"/>
	<path fill-rule="evenodd" clip-rule="evenodd" d="M349.154,285.675c8.487,2.18,9.5,11.834,17,15c4.782-0.551,5.526-5.142,10-6
		c-0.989,7.344-6.223,10.444-12,13C360.797,299.287,348.575,294.694,349.154,285.675z"/>
	<path fill-rule="evenodd" clip-rule="evenodd" fill="#C9320D" d="M250.154,311.675c1.712-2.288,7.634-0.367,11-1
		C259.443,312.963,253.521,311.042,250.154,311.675z"/>
	<path fill-rule="evenodd" clip-rule="evenodd" d="M204.155,325.675c-5.069,0.402-4.411-4.923-8-6c-2.103,0.896-4.446,1.555-6,3
		c1.66,8.851,14.81,9.069,15,17c0.263,10.932-20.794,12.629-22-1c4.315,1.744,12.664,9.519,17,2c-2.361-6.973-10.701-7.965-14-14
		c-0.22-3.22,1.769-4.231,1-8C192.389,313.41,207.841,316.635,204.155,325.675z"/>
	<path fill-rule="evenodd" clip-rule="evenodd" fill="#C9320D" d="M226.155,315.675c7.667,0,15.333,0,23,0
		C243.803,317.339,231.507,317.339,226.155,315.675z"/>
	<path fill-rule="evenodd" clip-rule="evenodd" d="M294.154,318.675c1.017,9.696,1.213,15.826,7,24c-6.442,2.683-7.693-6.429-12-9
		c-3.1-0.101-4.777,1.223-7,2c-0.633,3.366,1.289,9.288-1,11c-5.156-7.546-5.135-17.057-6-27
		C280.782,319.07,288.37,315.875,294.154,318.675z M279.154,322.675c-0.483,3.817,0.284,6.383,2,8c4.803,0.136,8.382-0.952,11-3
		C294.136,317.963,284.101,321.095,279.154,322.675z"/>
	<path fill-rule="evenodd" clip-rule="evenodd" d="M216.155,320.675c6.158,1.509,15.19,0.144,20,3c-0.113,5.118-3.309,1.36-7,2
		c-5.539,3.468-2.021,20.176-4,24c-8.312-2.213-0.11-15.824-3-22C221.362,324.134,215.036,326.127,216.155,320.675z"/>
	<path fill-rule="evenodd" clip-rule="evenodd" d="M254.154,322.675c3.615,9.053,9.973,15.361,12,26c-5.192,0.526-5.032-4.301-7-7
		c-13.941-4.659-10.873,10.928-19,9C245.77,342.289,243.479,325.999,254.154,322.675z M252.154,328.675c-0.851,2.815-3.23,4.103-3,8
		c2.334,0,4.667,0,7,0C256.923,331.906,254.743,330.087,252.154,328.675z"/>
	<path fill-rule="evenodd" clip-rule="evenodd" fill="#C9320D" d="M236.154,360.675c3.367,0.633,9.289-1.288,11,1
		C243.788,361.042,237.866,362.963,236.154,360.675z"/>
	<path fill-rule="evenodd" clip-rule="evenodd" fill="#FFFFFF" d="M340.154,231.675c-0.797-5.131,2.106-6.561,2-11
		c14.147-2.854,21.479-12.521,31-20c-0.556,8.716-3.909,17.054-4,26c-0.062,6.185,3.115,11.83,2,17
		c-2.509,11.636-16.674,12.567-28,17c-2.282-2.267,1.442-3.634,4-4c-0.638-3.633-4.674,2.32-5-1c2.445-3.889,10.191-2.476,12-7
		c-4.556,1.111-6.726,4.607-13,4c-1.674-1.659-0.795-5.871-1-9C340.154,239.675,340.154,235.675,340.154,231.675z"/>
	<path fill-rule="evenodd" clip-rule="evenodd" fill="#FFFFFF" d="M388.154,215.675c-3.039,8.961-6.455,17.545-14,22
		C368.249,224.812,377.396,200.148,388.154,215.675z"/>
	<path fill-rule="evenodd" clip-rule="evenodd" fill="#FFFFFF" d="M134.155,265.675c0,1.667,0,3.333,0,5
		c-12.589-3.078-21.833-9.5-31-16c-0.943-16.724-6.131-29.202-11-42c12.146,3.187,23.854,6.813,35,11c3.454,7.527,6.264,16.462,7,29
		C134.155,257.008,134.155,261.342,134.155,265.675z M128.155,264.675c-5.929-1.751-12.097-8.551-18-7
		C116.406,259.104,122.672,265.807,128.155,264.675z M121.155,247.675c-2.191-0.866-5.918-5.339-8-3
		C116.04,244.847,119.089,249.997,121.155,247.675z M121.155,251.675c-3.803,0.093-6.991-5.618-10-3
		C114.287,249.253,118.105,254.333,121.155,251.675z M125.155,258.675c-3.853-0.844-8.205-6.421-12-4
		C117.433,255.094,121.625,260.831,125.155,258.675z"/>
	<path fill-rule="evenodd" clip-rule="evenodd" fill="#FFFFFF" d="M337.154,281.675c-1.979,3.022-7.719,6.485-11,5
		C321.182,277.73,335.691,270.98,337.154,281.675z"/>
	<path fill-rule="evenodd" clip-rule="evenodd" fill="#FFFFFF" d="M414.154,290.675c0.145,3.144-2.564,3.436-5,4
		c1.991,2.247,7.229-0.715,9-2c-0.318-2.348-1.579-3.754-1-7c3.671-0.695,7.603-1.726,11,0c4.84,17.172-12.376,20.898-23,18
		c-0.935-1.989-3.255-4.761-1-7c-3.056,0.723-3.644-1.022-6-1C397.151,287.643,414.231,279.635,414.154,290.675z"/>
	<path fill-rule="evenodd" clip-rule="evenodd" fill="#FFFFFF" d="M164.155,288.675c1.822,5.842-5.618,11.034-7,17
		C155.293,299.793,162.438,294.307,164.155,288.675z"/>
	<path fill-rule="evenodd" clip-rule="evenodd" fill="#C9320D" d="M326.154,298.675c-2.44-2.226-4.808-4.525-5-9
		C324.121,291.375,324.519,295.645,326.154,298.675z"/>
	<path fill-rule="evenodd" clip-rule="evenodd" fill="#C9320D" d="M156.155,298.675c-1.657,3.343-3.343,6.657-5,10
		C149.693,306.168,152.487,299.374,156.155,298.675z"/>
	<path fill-rule="evenodd" clip-rule="evenodd" fill="#C9320D" d="M146.155,308.675c-1.609-1.032,0.546-6.72,3-7
		C148.798,304.651,147.562,306.749,146.155,308.675z"/>
	<path fill-rule="evenodd" clip-rule="evenodd" fill="#FFFFFF" d="M163.155,297.675c4.265,3.659-3.383,10.761-5,15
		C155.377,307.203,164.072,304.612,163.155,297.675z"/>
	<path fill-rule="evenodd" clip-rule="evenodd" fill="#FFFFFF" d="M236.154,360.675c-28.603-2.729-58.426-4.24-77-17
		c3.536-14.797,9.596-27.071,14-41c11.751,6.285,29.739,14.9,53,13c5.352,1.664,17.648,1.664,23,0c20.983-1.685,39.676-5.657,56-12
		c5.688,14.313,12.808,27.192,19,41c-18.549,12.784-47.565,15.101-77,17C245.443,359.387,239.521,361.308,236.154,360.675z
		 M187.155,318.675c0.769,3.769-1.22,4.78-1,8c3.299,6.035,11.639,7.027,14,14c-4.336,7.519-12.685-0.256-17-2
		c1.206,13.629,22.263,11.932,22,1c-0.19-7.931-13.34-8.149-15-17c1.554-1.445,3.897-2.104,6-3c3.589,1.077,2.931,6.402,8,6
		C207.841,316.635,192.389,313.41,187.155,318.675z M275.154,319.675c0.865,9.943,0.844,19.454,6,27c2.289-1.712,0.367-7.634,1-11
		c2.223-0.777,3.9-2.101,7-2c4.307,2.571,5.558,11.683,12,9c-5.787-8.174-5.983-14.304-7-24
		C288.37,315.875,280.782,319.07,275.154,319.675z M222.155,327.675c2.89,6.176-5.312,19.787,3,22c1.979-3.824-1.539-20.532,4-24
		c3.691-0.64,6.886,3.118,7-2c-4.81-2.856-13.842-1.491-20-3C215.036,326.127,221.362,324.134,222.155,327.675z M240.154,350.675
		c8.127,1.928,5.059-13.659,19-9c1.968,2.699,1.808,7.526,7,7c-2.027-10.639-8.385-16.947-12-26
		C243.479,325.999,245.77,342.289,240.154,350.675z"/>
	<path fill-rule="evenodd" clip-rule="evenodd" fill="#C9320D" d="M400.154,304.675c-6.692,4.974-13.271,10.062-21,14
		C384.768,312.62,391.771,307.958,400.154,304.675z"/>
	<path fill-rule="evenodd" clip-rule="evenodd" fill="#FFFFFF" d="M160.155,313.675c1.933-2.067,2.438-5.562,4-8
		c3.135,1.282-2.178,4.761,2,5C165.153,312.797,162.119,315.521,160.155,313.675z"/>
	<path fill-rule="evenodd" clip-rule="evenodd" fill="#C9320D" d="M320.154,305.675c1.888,1.446,4.434,2.233,4,6
		C322.139,310.358,320.771,308.392,320.154,305.675z"/>
	<path fill-rule="evenodd" clip-rule="evenodd" fill="#FFFFFF" d="M407.154,308.675c-0.232,3.1-3.546,3.12-6,4
		C402.024,310.211,403.485,308.339,407.154,308.675z"/>
	<path fill-rule="evenodd" clip-rule="evenodd" fill="#C9320D" d="M89.155,319.675c-2.678,0.315-11.004-2.307-13-6
		C81.656,314.507,84.861,317.636,89.155,319.675z"/>
	<path fill-rule="evenodd" clip-rule="evenodd" fill="#C9320D" d="M95.155,324.675c-1.481-1.852-5.168-1.498-5-5
		c2.263,1.07,4.397,2.27,6,4C95.304,323.491,95.211,324.064,95.155,324.675z"/>
	<path fill-rule="evenodd" clip-rule="evenodd" fill="#FFFFFF" d="M256.154,336.675c-2.333,0-4.666,0-7,0
		c-0.23-3.897,2.149-5.185,3-8C254.743,330.087,256.923,331.906,256.154,336.675z"/>
	<path fill-rule="evenodd" clip-rule="evenodd" fill="#FFFFFF" d="M304.154,298.675c-1.883,2.449-4.913,3.754-9,4
		c-0.938-3.728-4.127-5.206-3-11C297.709,288.8,305.701,291.209,304.154,298.675z"/>
	<path fill-rule="evenodd" clip-rule="evenodd" fill="#FFFFFF" d="M292.154,327.675c-2.618,2.048-6.197,3.136-11,3
		c-1.716-1.617-2.483-4.183-2-8C284.101,321.095,294.136,317.963,292.154,327.675z"/>
	<path fill-rule="evenodd" clip-rule="evenodd" fill="#FFFFFF" d="M96.155,323.675c3.78,0.22,4.856,3.144,8,4
		c-2.772,2.705-6.604-2.014-9-3C95.211,324.064,95.304,323.491,96.155,323.675z"/>
	<path fill-rule="evenodd" clip-rule="evenodd" fill="#FFFFFF" d="M356.154,324.675c-9.97-10.363-19.406-21.26-26-35
		c35.762-22.239,58.106-57.894,73-101c14.451-1.663,28.733,11.914,31,23c4.404,21.536-19.804,55.478-29,67
		C389.166,298.709,373.462,314.461,356.154,324.675z M395.154,226.675c8.239,4.761,15.254,10.747,23,16
		c2.136-5.689,8.889-11.562,6-19c-5.25,1.083-3.023,9.643-8,11c-2.058-1.275-5.071-1.595-5-5c0.665-2.685,4.392-5.315,2-8
		c-4.624,0.042-3.02,6.313-7,7c-2.004-1.662-4.647-2.686-5-6c0.591-3.54,5.859-6.163,3-10
		C398.781,214.968,397.504,221.357,395.154,226.675z M390.154,237.675c1.287,6.38,8.418,6.916,11,12c-5.524,3.809-17.345,1.321-23,5
		c5.625,6.375,11.557,12.444,19,17c3.631-8.83-11.095-6.52-10-16c11.368-0.173,17.243,0.284,24-4
		C406.022,245.72,398.477,237.138,390.154,237.675z M366.154,269.675c4.425,7.65,12.963,16.27,20,18
		C384.91,280.759,374.505,269.485,366.154,269.675z M364.154,307.675c5.777-2.556,11.011-5.656,12-13c-4.474,0.858-5.218,5.449-10,6
		c-7.5-3.166-8.513-12.82-17-15C348.575,294.694,360.797,299.287,364.154,307.675z"/>
	<path fill-rule="evenodd" clip-rule="evenodd" fill="#FFFFFF" d="M62.155,199.675c8.653,28.555,31.61,53.459,55,72
		c10.66,8.45,18.12,16.533,33,17c-2.47-3.554-11.265-3.761-7-11c3.509-3.009,5.655,1.749,9,2c-3.538,21.129-19.522,29.811-27,47
		c-22.017-5.954-38.691-23.892-57-43c-9.991-10.427-35.536-33.188-37-51C29.791,216.081,40.88,195.788,62.155,199.675z
		 M36.155,226.675c5.659,1.621,9.294-3.988,13-1c-0.678,5.624-8.782,6.991-6,13c10.261-1.073,19.146-3.521,24-10
		c-6.557-0.867-11.564,5.072-16,3c2.116-3.884,6.762-5.238,7-11c-2.478-1.927-10.734,1.715-13,0c2.066-5.268,7.708-6.958,10-12
		C47.396,209.355,39.7,218.475,36.155,226.675z M54.155,253.675c5.535,0.869,5.674-3.659,10-4c2.511,2.823,6.639,4.027,6,10
		c-1.121,2.475-6.339,4.161-4,7c7.751-3.336,16.767-10.449,18-17c-4.021-3.043-4.664,4.206-10,3c-1.073-2.594-4.348-2.985-5-6
		c-1.109-5.443,5.472-3.194,5-8C67.713,236.295,57.774,246.672,54.155,253.675z M74.155,277.675c8.473,0.171,14.697-9.749,19-17
		C85.112,260.744,78.054,270.157,74.155,277.675z M102.155,274.675c-3.564,6.77-10.648,10.019-14,17c1.479,0.521,2.521,1.479,4,2
		c3.42-6.246,8.959-10.374,14-15c2.162,0.838,3.411,2.589,7,2c-1.412-7.588-8.505-9.495-14-13
		C96.881,271.555,99.902,272.728,102.155,274.675z M104.155,306.675c4.299,3.701,8.139,7.861,14,10c3.607-6.581-4.957-7.019-7-11
		c1.823-5.05,5.098-4.723,11-4c0.539-3.872-2.549-4.118-3-7c2.358-0.309,1.86-3.473,5-3c4.389-0.056,5.358,3.309,9,4
		c-0.69-6.977-5.333-10.001-12-11C117.482,294.003,108.465,297.985,104.155,306.675z"/>
	<path fill-rule="evenodd" clip-rule="evenodd" fill="#FFFFFF" d="M98.155,248.675c-7.231-5.102-12.484-12.183-18-19
		C87.155,213.138,101.013,233.964,98.155,248.675z"/>
	<path fill-rule="evenodd" clip-rule="evenodd" fill="#FFFFFF" d="M76.155,298.675c0.769,3.769-1.22,4.78-1,8
		c-7.484,3.106-12.826,12.82-25,8c-2.119-5.34-2.066-11.188,0-17c3.458,0.812,4.222-1.867,6,0c3.225,2.252-1.738,7.489,1,9
		c4.211-0.122,0.993-7.674,2-11C67.657,296.064,71.487,295.128,76.155,298.675z"/>
	<path fill-rule="evenodd" clip-rule="evenodd" fill="#FFFFFF" d="M187.155,298.675c0.792,3.458-1.112,4.222-2,6
		c-2.67-2.33-8.744-1.257-8-7C180.573,295.928,184.319,297.145,187.155,298.675z"/>
	<path fill-rule="evenodd" clip-rule="evenodd" fill="#FFFFFF" d="M373.154,318.675c5.736-8.265,14.696-13.304,24-18
		c-3.59,6.41-11.884,8.115-17,13C378.242,315.762,376.596,318.115,373.154,318.675z"/>
	<g>
		<g>
			<path fill-rule="evenodd" clip-rule="evenodd" d="M407.023,282.691c7.421,0.755,9.741-3.592,17-3c6.818,2.167,9.969,11.111,7,20
				c-5.241,8.759-16.79,11.21-26,16c-8.214,5.119-15.818,10.849-25,15c-5.828-0.505-8.034-4.632-13-6c-4.716,0.284-5.912,4.088-10,5
				c-8.799-3.534-9.308-15.358-19-18c-9.442,0.891-13.519,7.147-18,13c0.369,9.965,6.158,14.509,8,23
				c-15.94,11.06-40.412,13.588-63,18c-43.121,0.787-81.152-3.515-110-17c-2.082-8.566,5.774-13.643,5-24
				c-3.706-5.96-9.693-9.64-18-11c-9.688,3.312-9.588,16.411-18,21c-5.837-0.163-7.436-4.564-12-6c-5.188,0.479-4.203,7.13-9,8
				c-16.014-7.985-29.377-18.623-54-18c-4.194-4.473-8.987-8.346-10-16c0.898-4.102,3.059-6.941,5-10c7.39-2.278,15.898-0.015,23,1
				c-4.405-9.928-12.688-15.979-19-24c-6.576-7.758-12.503-16.164-18-25c0.331-3.664-1.11-5.557-2-8
				c-0.857-21.24,10.043-38.346,29-43c6.305-0.305,11.842,0.158,17,1c12.604,12.729,30.814,19.852,51,25
				c12.562,10.562,14.556,36.609,12,59c4.951,1.658,6.042-8.412,9-12c3.647-1.686,6.757-3.91,11-5c19.032,1.301,32.326,8.34,35,26
				c0.567,7.234-3.295,10.038-3,17c4.33,6.004,16.76,3.907,24,7c28.176,0.241,57.393,1.488,78-8c-0.712-9.621-5.705-14.962-5-26
				c3.694-13.778,18.032-20.643,34-19c7.752,5.581,12.359,14.308,20,20c-0.69-16.598-5.972-37.973-1-57
				c19.078-8.922,30.206-25.794,48-36c9.034-1.459,18.691-1.164,26,0c12.079,4.921,19.689,14.311,24,27
				C435.503,244.504,421.166,263.5,407.023,282.691z M405.023,278.691c12.282-19.385,26.786-36.547,29-66
				c-6.854-11.008-14.17-26.229-31-24c-3.656,7.344-6.314,15.686-8,25c-9.144,17.855-21.393,32.607-32,49
				c-10.831,9.017-20.288,22.994-33,27c6.503,13.83,16.602,24.065,26,35C376.324,313.325,389.368,294.702,405.023,278.691z
				 M36.023,210.691c-1.286,6.714-4.119,11.881-5,19c1.378,1.289,0.989,4.344,1,7c0.779,0.221,1.162,0.838,1,2
				c10.239,19.428,24.739,34.594,40,49c6.373,8.627,14.725,15.275,23,22c8.972,6.028,15.028,14.972,28,17
				c5.69-3.977,8.504-10.829,11-18c3.251-3.082,4.897-7.77,9-10c0.468-4.56,8.302-6.995,6-11c-2.827,4.95-8.512-1.302-13-1
				c-31.037-22.963-61.956-46.044-75-87C48.918,196.125,43.023,205.178,36.023,210.691z M348.023,255.691
				c-0.887,2.447-5.584,1.083-5,5c11.128-3.873,23.271-6.729,28-17c-3.521-14.173,1.239-28.838,0-42
				c-7.211,9.122-17.334,15.333-29,20c-3.039,9.414-2.936,21.248-1,31c6.307,1.609,9.308-5.318,13-3c-2.807,3.526-10.301,2.365-12,7
				C344.379,256.714,344.968,254.969,348.023,255.691z M376.023,237.691c3.81-7.523,9.912-12.755,12-22
				C377.34,200.036,367.401,228.217,376.023,237.691z M103.023,253.691c7.816,7.851,18.57,12.763,30,17
				c3.922-16.113-1.269-31.959-5-46c-10.46-5.539-24.031-7.969-36-12C97.271,224.777,101.898,237.482,103.023,253.691z
				 M80.023,227.691c4.403,8.264,10.118,15.215,18,20C99.178,235.021,90.402,216.111,80.023,227.691z M354.023,259.691
				c-0.276-0.277-1.518,0.482-1,1C353.3,260.969,354.541,260.209,354.023,259.691z M345.023,263.691c-0.276-0.277-1.518,0.482-1,1
				C344.3,264.969,345.541,264.209,345.023,263.691z M326.023,286.691c5.963-0.037,9.692-2.308,11-7
				C332.037,272.146,323.402,279.197,326.023,286.691z M142.023,282.691c2.251,2.415,4.797,4.536,10,4
				C154.792,278.034,142.079,274.133,142.023,282.691z M417.023,285.691c-0.802,3.469,1.489,3.844,1,7c-2.841,2.259-5.033,4.187-9,2
				c2.059-1.275,5.072-1.595,5-5c-0.521-1.479-1.479-2.521-2-4c-7.195,0.139-11.782,2.884-14,8c0.779,0.221,1.162,0.837,1,2
				c1.182,1.151,3.535,1.132,6,1c-4.058,3.104,0.285,5.246,2,8c3.816-1.34,5.875-2.812,9,0c8.805-1.37,13.967-8.834,12-18
				c-3.781,1.447-1.919-2.748-5-2C420.668,284.669,420.079,286.414,417.023,285.691z M163.023,292.691c-3.393,2.94-4.914,7.753-7,12
				C159.507,301.841,161.698,297.699,163.023,292.691c0.333,0,0.667,0,1,0c0.292-0.614,2.487-3.85,0-4
				C163.247,289.581,162.948,290.949,163.023,292.691z M183.023,292.691c0.667,0,1.333,0,2,0c0-0.667,0-1.333,0-2
				c-0.667,0-1.333,0-2,0C183.023,291.358,183.023,292.024,183.023,292.691z M292.023,291.691c-0.146,5.146,1.978,8.022,4,11
				c4.933-0.401,7.599-3.067,8-8C303.154,290.856,296.035,289.192,292.023,291.691z M322.023,291.691c-0.279,2.279,0.241,3.759,2,4
				c-0.956,4.153,2.995,0.202,0,0C324.303,293.412,323.782,291.933,322.023,291.691
				C321.408,290.237,320.814,291.793,322.023,291.691z M56.023,307.691c-0.785-4.118,1.535-5.132,1-9c-1.289-1.378-4.344-0.989-7-1
				c-0.531,5.379-3.027,11.467,1,17c7.326,2.716,16.47,0.241,18-6c3.146,0.479,3.909-1.424,6-2c-0.22-3.22,1.769-4.231,1-8
				c-3.833-2.834-10.527-2.807-17-3C57.271,301.164,63.304,308.333,56.023,307.691z M168.023,299.691c0.145-1.182,1.78-2.267,0-3
				C167.879,297.873,166.243,298.958,168.023,299.691z M177.023,297.691c0.428,4.277,6.316,7.171,10,5
				C187.453,297.025,180.941,296.062,177.023,297.691z M153.023,302.691c-0.973,0.027-0.776,1.224-1,2c-0.973,0.027-0.776,1.224-1,2
				c-1.454,0.615,0.102,1.209,0,0c0.973-0.027,0.776-1.224,1-2C152.996,304.664,152.8,303.468,153.023,302.691c0.333,0,0.667,0,1,0
				c0.292-0.614,2.487-3.85,0-4C154.15,300.485,152.799,300.801,153.023,302.691z M163.023,301.691c-2.015,2.683-6.694,7.932-5,11
				C159.236,308.57,162.562,306.564,163.023,301.691C166.062,300.51,161.939,296.388,163.023,301.691z M393.023,298.691
				c-0.276-0.276-1.518,0.482-1,1C392.3,299.968,393.541,299.209,393.023,298.691z M146.023,307.691
				C144.569,308.307,146.125,308.9,146.023,307.691c0.333,0,0.667,0,1,0c0.169-1.613,3.355-5.154,1-6
				C147.447,303.782,145.544,304.546,146.023,307.691z M373.023,318.691c4.944-1.722,6.897-6.436,12-8c2.52-4.48,9.1-4.899,12-9
				C386.652,304.987,379.719,311.72,373.023,318.691z M159.023,343.691c20.013,13.601,54.188,13.646,82,18c5,0,10,0,15,0
				c9.796-2.36,23.846-2.496,36-5c10.032-4.301,24.902-3.764,31-12c-5.148-14.518-12.95-26.383-18-41
				c-21.369,9.259-64.002,15.579-96,12c-6.59-0.737-19.91-3.65-25-6c-4.139-1.91-7.132-7.565-11-7
				C168.694,316.695,163.041,329.376,159.023,343.691z M333.023,303.691C334.182,307.643,334.182,299.74,333.023,303.691
				L333.023,303.691z M331.023,307.691c0.279-2.279-0.241-3.759-2-4C328.744,305.971,329.265,307.45,331.023,307.691z
				 M398.023,305.691c-2.333,0.334-4.309,1.024-5,3c-0.851-0.184-0.943,0.39-1,1c-1.711-0.044-2.59,0.743-3,2
				c-1.912,0.421-4.305,0.362-4,3c-1.162-0.162-1.779,0.221-2,1c-2.503-0.17-3.131,1.536-4,3c-4.405-0.186-0.283,3.937,0,0
				c2.503,0.17,3.131-1.536,4-3c1.162,0.163,1.779-0.221,2-1c1.329-1.004,3.721-0.945,4-3c1.711,0.044,2.59-0.743,3-2
				c0.851,0.184,0.943-0.39,1-1C395.356,308.357,397.332,307.667,398.023,305.691C402.177,306.647,398.226,302.696,398.023,305.691z
				 M164.023,307.691c-1.598,1.402-2.555,3.445-3,6C165.248,313.068,164.697,311.471,164.023,307.691
				C167.019,307.489,163.067,303.538,164.023,307.691z M322.023,307.691c-0.162,1.162,0.221,1.779,1,2c0.615,1.454,1.209-0.102,0,0
				C323.186,308.529,322.803,307.912,322.023,307.691C321.408,306.237,320.814,307.793,322.023,307.691z M402.023,306.691
				c-0.276-0.276-1.518,0.482-1,1C401.3,307.968,402.541,307.209,402.023,306.691z M155.023,310.691c0.896-0.158,0.513-5.53-1-2
				C153.768,309.287,154.433,310.796,155.023,310.691z M401.023,312.691c2.967-0.366,4.934-1.733,6-4
				C403.258,308.259,402.47,310.804,401.023,312.691z M320.023,312.691C317.606,316.046,323.378,310.274,320.023,312.691
				L320.023,312.691z M82.023,316.691c0.027,0.973,1.224,0.776,2,1c0.615,1.454,1.208-0.102,0,0
				C83.996,316.719,82.8,316.915,82.023,316.691c-0.91-1.757-3.504-1.829-5-3C76.878,316.503,79.473,316.575,82.023,316.691z
				 M73.023,316.691c-0.276-0.276-1.518,0.482-1,1C72.3,317.968,73.541,317.209,73.023,316.691z M87.023,318.691
				c-0.276-0.276-1.518,0.482-1,1C86.3,319.968,87.541,319.209,87.023,318.691z M103.023,328.691c-2.641-3.38-8.933-8.374-13-7
				C94.913,323.468,98.099,326.95,103.023,328.691z M101.023,320.691c-0.776,0.224-1.973,0.027-2,1
				C99.8,321.468,100.996,321.664,101.023,320.691z"/>
			<path fill-rule="evenodd" clip-rule="evenodd" fill="#FFFFFF" d="M356.023,324.691c-9.398-10.935-19.497-21.17-26-35
				c12.712-4.006,22.169-17.983,33-27c10.607-16.393,22.856-31.145,32-49c1.686-9.314,4.344-17.656,8-25
				c16.83-2.229,24.146,12.992,31,24c-2.214,29.453-16.718,46.615-29,66C389.368,294.702,376.324,313.325,356.023,324.691z
				 M395.023,226.691c7.121,5.545,15.417,9.916,22,16c3.524-3.641,13.108-16.272,5-19c-2.123,3.543-2.403,8.93-6,11
				c-1.332-1.002-3.018-1.648-4-3c-1.444-5.039,3.628-6.872,1-10c-4.505,0.162-3.146,6.188-8,6c-0.18-2.82-4.753-1.247-4-5
				c0.898-3.436,4.321-4.346,4-9c-1.278-0.055-1.385-1.281-3-1C399.287,216.955,396.684,221.352,395.023,226.691z M390.023,239.691
				c2.092,4.908,9.74,4.26,10,11c-7.424,0.91-15.155,1.512-22,3c0.785,5.548,5.462,7.205,9,10c2.665,2.945,6.763,8.857,11,7
				c-0.706-7.627-9.812-6.854-11-14c7.329-2.671,21.467,1.467,24-6c-5.178-6.488-12.677-10.656-20-15
				C391.248,237.582,389.896,237.897,390.023,239.691z M365.023,272.691c8.027,3.973,12.217,11.783,20,16
				c4.265-8.579-10.967-13.231-15-20c-1,0-2,0-3,0C367.011,270.679,364.295,269.963,365.023,272.691z M347.023,288.691
				c7.847,4.82,10.622,14.711,19,19c3.703-4.069,12.032-7.357,10-14c-4.758,0.909-5.364,5.969-10,7c-6.436-4.231-9.564-11.769-16-16
				C349.729,286.73,347.317,286.652,347.023,288.691z"/>
			<path fill-rule="evenodd" clip-rule="evenodd" fill="#FFFFFF" d="M62.023,199.691c13.044,40.956,43.963,64.037,75,87
				c4.488-0.302,10.173,5.95,13,1c2.302,4.005-5.532,6.44-6,11c-4.103,2.23-5.749,6.918-9,10c-2.496,7.171-5.31,14.023-11,18
				c-12.972-2.028-19.028-10.972-28-17c-8.275-6.725-16.627-13.373-23-22c-15.261-14.406-29.761-29.572-40-49
				c0.162-1.162-0.221-1.779-1-2c-0.011-2.656,0.378-5.711-1-7c0.881-7.119,3.714-12.286,5-19
				C43.023,205.178,48.918,196.125,62.023,199.691z M51.023,207.691c-4.587,6.746-12.243,10.424-16,18c4.319,4.513,9.676-2.513,14,0
				c-0.89,5.109-6.736,5.264-7,11c0.779,0.221,1.162,0.838,1,2c7.651-0.018,19.693-3.396,24-10c-6.408-1.051-11.694,4.272-15,3
				c1.767-4.233,6.168-5.832,6-12c-3.928-0.218-9.783,2.825-13,0c3.205-3.795,8.285-5.715,10-11
				C53.672,208.377,53.113,207.268,51.023,207.691z M70.023,236.691c-4.771,6.229-13.197,8.803-17,16c5.242,3.729,7.482-2.813,12-3
				c0.574,4.092,5.348,3.986,5,9c-1.08,3.051-7.281,4.74-4,9c5.383-0.617,6.781-5.219,10-8c3.347-2.986,8.126-4.541,9-10
				c-3.925-2.947-6.703,2.166-10,3c-2.313-2.02-5.344-3.323-6-7c0.407-3.926,5.812-2.854,5-8
				C72.672,237.377,72.113,236.268,70.023,236.691z M76.023,279.691c6.215-5.785,13.555-10.445,17-19c-1.427-0.239-1.687-1.646-3-2
				C85.912,265.383,70.999,270.354,76.023,279.691z M98.023,268.691c-1.052,4.386,3.382,3.285,3,7c-3.298,6.369-9.942,9.392-13,16
				c7.816,4.985,10.086-10.648,18-12c3.073-0.148,4.497,3.519,7,1C113.503,275.591,103.776,267.56,98.023,268.691z M121.023,284.691
				c-4.137,8.863-13.083,12.917-17,22c3.783,3.721,9.265,10.503,15,9c1.298-7.298-6.805-5.195-7-11c0.972-4.308,6.273-2.743,10-2
				c1.021-4.687-1.646-5.688-3-8c4.304-6.568,10.571,1.735,15,0C132.343,288.705,128.276,285.104,121.023,284.691z"/>
			<path fill-rule="evenodd" clip-rule="evenodd" fill="#FFFFFF" d="M348.023,255.691c3.979,0.646,4.021-2.646,8-2
				C355.293,250.141,349.082,253.477,348.023,255.691c-3.056-0.723-3.645,1.022-6,1c1.699-4.635,9.193-3.474,12-7
				c-3.692-2.318-6.693,4.609-13,3c-1.936-9.752-2.039-21.586,1-31c11.666-4.667,21.789-10.878,29-20
				c1.239,13.162-3.521,27.827,0,42c-4.729,10.271-16.872,13.127-28,17C342.439,256.774,347.137,258.139,348.023,255.691z
				 M349.023,243.691c-0.396-2.396,4.555,0.555,3-3C350.296,240.441,346.102,242.574,349.023,243.691z M348.023,247.691
				c2.003-0.41,7.806-2.088,5-4C352.787,246.455,347.382,244.05,348.023,247.691z M362.023,248.691c-0.276-0.277-1.518,0.482-1,1
				C361.3,249.969,362.541,249.209,362.023,248.691z"/>
			<path fill-rule="evenodd" clip-rule="evenodd" d="M55.023,208.691c-1.715,5.285-6.795,7.205-10,11c3.217,2.825,9.072-0.218,13,0
				c0.168,6.168-4.233,7.767-6,12c3.306,1.272,8.592-4.051,15-3c-4.307,6.604-16.349,9.982-24,10c0.162-1.162-0.221-1.779-1-2
				c0.264-5.736,6.11-5.891,7-11c-4.324-2.513-9.681,4.513-14,0c3.757-7.576,11.413-11.254,16-18
				C53.113,207.268,53.672,208.377,55.023,208.691z"/>
			<path fill-rule="evenodd" clip-rule="evenodd" fill="#FFFFFF" d="M92.023,212.691c11.969,4.031,25.54,6.461,36,12
				c3.731,14.041,8.922,29.887,5,46c-11.43-4.237-22.184-9.149-30-17C101.898,237.482,97.271,224.777,92.023,212.691z
				 M118.023,240.691C113.981,237.174,115.665,243.908,118.023,240.691L118.023,240.691z M122.023,249.691
				c-1.28-2.758-6.133-7.149-9-5C116.007,246.375,118.395,248.654,122.023,249.691z M122.023,252.691c-3.212-2.455-7.291-4.042-11-6
				C111.274,251.468,119.796,253.217,122.023,252.691z M125.023,258.691c-4.238-1.451-9.434-7.203-14-5
				C116.23,254.174,120.403,260.947,125.023,258.691z M131.023,267.691c-6.132-6.867-16.81-9.191-25-14
				C111.972,260.744,122.633,263.082,131.023,267.691z"/>
			<path fill-rule="evenodd" clip-rule="evenodd" d="M402.023,212.691c1.615-0.281,1.722,0.945,3,1c0.321,4.654-3.102,5.564-4,9
				c-0.753,3.753,3.82,2.18,4,5c4.854,0.188,3.495-5.838,8-6c2.628,3.128-2.444,4.961-1,10c0.982,1.352,2.668,1.998,4,3
				c3.597-2.07,3.877-7.457,6-11c8.108,2.728-1.476,15.359-5,19c-6.583-6.084-14.879-10.455-22-16
				C396.684,221.352,399.287,216.955,402.023,212.691z"/>
			<path fill-rule="evenodd" clip-rule="evenodd" d="M391.023,235.691c7.323,4.344,14.822,8.512,20,15
				c-2.533,7.467-16.671,3.329-24,6c1.188,7.146,10.294,6.373,11,14c-4.237,1.857-8.335-4.055-11-7c-3.538-2.795-8.215-4.452-9-10
				c6.845-1.488,14.576-2.09,22-3c-0.26-6.74-7.908-6.092-10-11C389.896,237.897,391.248,237.582,391.023,235.691z"/>
			<path fill-rule="evenodd" clip-rule="evenodd" d="M74.023,237.691c0.812,5.146-4.593,4.074-5,8c0.656,3.677,3.687,4.98,6,7
				c3.297-0.834,6.075-5.947,10-3c-0.874,5.459-5.653,7.014-9,10c-3.219,2.781-4.617,7.383-10,8c-3.281-4.26,2.92-5.949,4-9
				c0.348-5.014-4.426-4.908-5-9c-4.518,0.187-6.758,6.729-12,3c3.803-7.197,12.229-9.771,17-16
				C72.113,236.268,72.672,237.377,74.023,237.691z"/>
			<path fill-rule="evenodd" clip-rule="evenodd" d="M118.023,240.691C115.665,243.908,113.981,237.174,118.023,240.691
				L118.023,240.691z"/>
			<path fill-rule="evenodd" clip-rule="evenodd" d="M352.023,240.691c1.555,3.555-3.396,0.604-3,3
				C346.102,242.574,350.296,240.441,352.023,240.691z"/>
			<path fill-rule="evenodd" clip-rule="evenodd" d="M113.023,244.691c2.867-2.149,7.72,2.242,9,5
				C118.395,248.654,116.007,246.375,113.023,244.691z"/>
			<path fill-rule="evenodd" clip-rule="evenodd" d="M353.023,243.691c2.806,1.912-2.997,3.59-5,4
				C347.382,244.05,352.787,246.455,353.023,243.691z"/>
			<path fill-rule="evenodd" clip-rule="evenodd" d="M111.023,246.691c3.709,1.958,7.788,3.545,11,6
				C119.796,253.217,111.274,251.468,111.023,246.691z"/>
			<path fill-rule="evenodd" clip-rule="evenodd" d="M361.023,249.691c-0.518-0.518,0.724-1.277,1-1
				C362.541,249.209,361.3,249.969,361.023,249.691z"/>
			<path fill-rule="evenodd" clip-rule="evenodd" d="M348.023,255.691c1.059-2.215,7.27-5.551,8-2
				C352.044,253.045,352.003,256.338,348.023,255.691z"/>
			<path fill-rule="evenodd" clip-rule="evenodd" d="M111.023,253.691c4.566-2.203,9.762,3.549,14,5
				C120.403,260.947,116.23,254.174,111.023,253.691z"/>
			<path fill-rule="evenodd" clip-rule="evenodd" d="M106.023,253.691c8.19,4.809,18.868,7.133,25,14
				C122.633,263.082,111.972,260.744,106.023,253.691z"/>
			<path fill-rule="evenodd" clip-rule="evenodd" d="M90.023,258.691c1.313,0.354,1.573,1.761,3,2c-3.445,8.555-10.785,13.215-17,19
				C70.999,270.354,85.912,265.383,90.023,258.691z"/>
			<path fill-rule="evenodd" clip-rule="evenodd" fill="#FFFFFF" d="M353.023,260.691c-0.518-0.518,0.724-1.277,1-1
				C354.541,260.209,353.3,260.969,353.023,260.691z"/>
			<path fill-rule="evenodd" clip-rule="evenodd" fill="#FFFFFF" d="M344.023,264.691c-0.518-0.518,0.724-1.277,1-1
				C345.541,264.209,344.3,264.969,344.023,264.691z"/>
			<path fill-rule="evenodd" clip-rule="evenodd" d="M113.023,280.691c-2.503,2.519-3.927-1.148-7-1
				c-7.914,1.352-10.184,16.985-18,12c3.058-6.608,9.702-9.631,13-16c0.382-3.715-4.052-2.614-3-7
				C103.776,267.56,113.503,275.591,113.023,280.691z"/>
			<path fill-rule="evenodd" clip-rule="evenodd" d="M367.023,268.691c1,0,2,0,3,0c4.033,6.769,19.265,11.421,15,20
				c-7.783-4.217-11.973-12.027-20-16C364.295,269.963,367.011,270.679,367.023,268.691z"/>
			<path fill-rule="evenodd" clip-rule="evenodd" fill="#FFFFFF" d="M337.023,279.691c-1.308,4.692-5.037,6.963-11,7
				C323.402,279.197,332.037,272.146,337.023,279.691z"/>
			<path fill-rule="evenodd" clip-rule="evenodd" fill="#FFFFFF" d="M152.023,286.691c-5.203,0.536-7.749-1.585-10-4
				C142.079,274.133,154.792,278.034,152.023,286.691z"/>
			<path fill-rule="evenodd" clip-rule="evenodd" d="M134.023,294.691c-4.429,1.735-10.696-6.568-15,0c1.354,2.312,4.021,3.313,3,8
				c-3.727-0.743-9.028-2.308-10,2c0.195,5.805,8.298,3.702,7,11c-5.735,1.503-11.217-5.279-15-9c3.917-9.083,12.863-13.137,17-22
				C128.276,285.104,132.343,288.705,134.023,294.691z"/>
			<path fill-rule="evenodd" clip-rule="evenodd" d="M350.023,284.691c6.436,4.231,9.564,11.769,16,16c4.636-1.031,5.242-6.091,10-7
				c2.032,6.643-6.297,9.931-10,14c-8.378-4.289-11.153-14.18-19-19C347.317,286.652,349.729,286.73,350.023,284.691z"/>
			<path fill-rule="evenodd" clip-rule="evenodd" fill="#FFFFFF" d="M423.023,284.691c3.081-0.748,1.219,3.447,5,2
				c1.967,9.166-3.195,16.63-12,18c-3.125-2.812-5.184-1.34-9,0c-1.715-2.754-6.058-4.896-2-8c-2.465,0.132-4.818,0.151-6-1
				c0.162-1.163-0.221-1.779-1-2c2.218-5.116,6.805-7.861,14-8c0.521,1.479,1.479,2.521,2,4c0.072,3.405-2.941,3.725-5,5
				c3.967,2.187,6.159,0.259,9-2c0.489-3.156-1.802-3.531-1-7C420.079,286.414,420.668,284.669,423.023,284.691z"/>
			<path fill-rule="evenodd" clip-rule="evenodd" fill="#FFFFFF" d="M163.023,292.691c-0.075-1.742,0.224-3.11,1-4
				c2.487,0.15,0.292,3.386,0,4C163.69,292.691,163.356,292.691,163.023,292.691z"/>
			<path fill-rule="evenodd" clip-rule="evenodd" fill="#FFFFFF" d="M183.023,290.691c0.667,0,1.333,0,2,0c0,0.667,0,1.333,0,2
				c-0.667,0-1.333,0-2,0C183.023,292.024,183.023,291.358,183.023,290.691z"/>
			<path fill-rule="evenodd" clip-rule="evenodd" fill="#FFFFFF" d="M304.023,294.691c-0.401,4.933-3.067,7.599-8,8
				c-2.022-2.978-4.146-5.854-4-11C296.035,289.192,303.154,290.856,304.023,294.691z"/>
			<path fill-rule="evenodd" clip-rule="evenodd" fill="#FFFFFF" d="M322.023,291.691
				C320.814,291.793,321.408,290.237,322.023,291.691L322.023,291.691z"/>
			<path fill-rule="evenodd" clip-rule="evenodd" fill="#FFFFFF" d="M322.023,291.691c1.759,0.241,2.279,1.721,2,4
				C322.265,295.45,321.744,293.971,322.023,291.691z"/>
			<path fill-rule="evenodd" clip-rule="evenodd" fill="#FFFFFF" d="M163.023,292.691c-1.325,5.008-3.517,9.149-7,12
				C158.109,300.444,159.631,295.632,163.023,292.691z"/>
			<path fill-rule="evenodd" clip-rule="evenodd" fill="#FFFFFF" d="M59.023,295.691c6.473,0.193,13.167,0.166,17,3
				c0.769,3.769-1.22,4.78-1,8c-2.091,0.576-2.854,2.479-6,2c-1.53,6.241-10.674,8.716-18,6c-4.027-5.533-1.531-11.621-1-17
				c2.656,0.011,5.711-0.378,7,1c0.535,3.868-1.785,4.882-1,9C63.304,308.333,57.271,301.164,59.023,295.691z"/>
			<path fill-rule="evenodd" clip-rule="evenodd" fill="#FFFFFF" d="M324.023,295.691
				C327.019,295.894,323.067,299.845,324.023,295.691L324.023,295.691z"/>
			<path fill-rule="evenodd" clip-rule="evenodd" fill="#FFFFFF" d="M168.023,296.691c1.78,0.733,0.145,1.818,0,3
				C166.243,298.958,167.879,297.873,168.023,296.691z"/>
			<path fill-rule="evenodd" clip-rule="evenodd" fill="#FFFFFF" d="M187.023,302.691c-3.684,2.171-9.572-0.723-10-5
				C180.941,296.062,187.453,297.025,187.023,302.691z"/>
			<path fill-rule="evenodd" clip-rule="evenodd" fill="#FFFFFF" d="M153.023,302.691c-0.225-1.891,1.127-2.206,1-4
				c2.487,0.15,0.292,3.386,0,4C153.69,302.691,153.356,302.691,153.023,302.691z"/>
			<path fill-rule="evenodd" clip-rule="evenodd" fill="#FFFFFF" d="M163.023,301.691
				C161.939,296.388,166.062,300.51,163.023,301.691L163.023,301.691z"/>
			<path fill-rule="evenodd" clip-rule="evenodd" fill="#FFFFFF" d="M392.023,299.691c-0.518-0.518,0.724-1.276,1-1
				C393.541,299.209,392.3,299.968,392.023,299.691z"/>
			<path fill-rule="evenodd" clip-rule="evenodd" fill="#FFFFFF" d="M146.023,307.691c-0.479-3.146,1.424-3.909,2-6
				c2.355,0.846-0.831,4.387-1,6C146.69,307.691,146.356,307.691,146.023,307.691z"/>
			<path fill-rule="evenodd" clip-rule="evenodd" fill="#FFFFFF" d="M163.023,301.691c-0.461,4.873-3.787,6.879-5,11
				C156.329,309.623,161.009,304.374,163.023,301.691z"/>
			<path fill-rule="evenodd" clip-rule="evenodd" fill="#FFFFFF" d="M397.023,301.691c-2.9,4.101-9.48,4.52-12,9
				c-5.103,1.564-7.056,6.278-12,8C379.719,311.72,386.652,304.987,397.023,301.691z"/>
			<path fill-rule="evenodd" clip-rule="evenodd" fill="#FFFFFF" d="M153.023,302.691c-0.224,0.776-0.027,1.973-1,2
				C152.247,303.915,152.051,302.719,153.023,302.691z"/>
			<path fill-rule="evenodd" clip-rule="evenodd" fill="#FFFFFF" d="M173.023,302.691c3.868-0.565,6.861,5.09,11,7
				c5.09,2.35,18.41,5.263,25,6c31.998,3.579,74.631-2.741,96-12c5.05,14.617,12.852,26.482,18,41c-6.098,8.236-20.968,7.699-31,12
				c-12.154,2.504-26.204,2.64-36,5c-5,0-10,0-15,0c-27.812-4.354-61.987-4.399-82-18
				C163.041,329.376,168.694,316.695,173.023,302.691z M186.023,326.691c3.221,6.112,11.212,7.455,14,14
				c-4.432,7.614-12.228-0.713-17-2c-0.484,11.832,20.908,13.433,22,2c-1.425-9.575-13.159-8.841-14-19c6.93-4.198,7.686,3.562,13,4
				C208.881,313.979,182.354,311.239,186.023,326.691z M295.023,330.691c4.633-16.217-8.567-14.877-20-11
				c-0.981,4.087,0.11,4.042,0,9c3.534,4.466,0.081,15.919,6,18c2.976-2.822-1.676-14.504,8-13c4.102,2.775,5.547,11.692,12,9
				C300.976,336.739,295.593,336.122,295.023,330.691z M215.023,322.691c0.98,3.02,5.938,2.062,7,5c2.24,8.372-5.547,20.757,3,23
				c3.001-5.999-1.447-19.447,3-24c2.502-3.226,8.229,2.956,8-3C233.959,321.855,218.67,319.304,215.023,322.691z M255.023,322.691
				c-1.377,0.043-2.195-0.471-3-1c-0.261,1.406-2.193,1.14-3,2c-1.677,9.739-8.97,18.918-8,28c7.141,0.474,3.265-10.068,10-10
				c4.118-0.785,5.132,1.535,9,1c0.877,2.719,2.103,8.397,5,6C266.991,338.715,256.534,332.521,255.023,322.691z"/>
			<path fill-rule="evenodd" clip-rule="evenodd" fill="#FFFFFF" d="M333.023,303.691
				C334.182,299.74,334.182,307.643,333.023,303.691L333.023,303.691z"/>
			<path fill-rule="evenodd" clip-rule="evenodd" fill="#FFFFFF" d="M329.023,303.691c1.759,0.241,2.279,1.721,2,4
				C329.265,307.45,328.744,305.971,329.023,303.691z"/>
			<path fill-rule="evenodd" clip-rule="evenodd" fill="#FFFFFF" d="M152.023,304.691c-0.224,0.776-0.027,1.973-1,2
				C151.247,305.915,151.051,304.719,152.023,304.691z"/>
			<path fill-rule="evenodd" clip-rule="evenodd" fill="#FFFFFF" d="M398.023,305.691
				C398.226,302.696,402.177,306.647,398.023,305.691L398.023,305.691z"/>
			<path fill-rule="evenodd" clip-rule="evenodd" fill="#FFFFFF" d="M164.023,307.691
				C163.067,303.538,167.019,307.489,164.023,307.691L164.023,307.691z"/>
			<path fill-rule="evenodd" clip-rule="evenodd" fill="#FFFFFF" d="M398.023,305.691c-0.691,1.976-2.667,2.666-5,3
				C393.715,306.716,395.69,306.025,398.023,305.691z"/>
			<path fill-rule="evenodd" clip-rule="evenodd" fill="#FFFFFF" d="M151.023,306.691
				C151.125,307.9,149.569,307.307,151.023,306.691L151.023,306.691z"/>
			<path fill-rule="evenodd" clip-rule="evenodd" fill="#FFFFFF" d="M322.023,307.691
				C320.814,307.793,321.408,306.237,322.023,307.691L322.023,307.691z"/>
			<path fill-rule="evenodd" clip-rule="evenodd" fill="#FFFFFF" d="M401.023,307.691c-0.518-0.518,0.724-1.276,1-1
				C402.541,307.209,401.3,307.968,401.023,307.691z"/>
			<path fill-rule="evenodd" clip-rule="evenodd" fill="#FFFFFF" d="M146.023,307.691
				C146.125,308.9,144.569,308.307,146.023,307.691L146.023,307.691z"/>
			<path fill-rule="evenodd" clip-rule="evenodd" fill="#FFFFFF" d="M154.023,308.691c1.513-3.53,1.896,1.842,1,2
				C154.433,310.796,153.768,309.287,154.023,308.691z"/>
			<path fill-rule="evenodd" clip-rule="evenodd" fill="#FFFFFF" d="M164.023,307.691c0.674,3.779,1.225,5.377-3,6
				C161.469,311.137,162.426,309.094,164.023,307.691z"/>
			<path fill-rule="evenodd" clip-rule="evenodd" fill="#FFFFFF" d="M322.023,307.691c0.779,0.221,1.162,0.838,1,2
				C322.244,309.471,321.861,308.854,322.023,307.691z"/>
			<path fill-rule="evenodd" clip-rule="evenodd" fill="#FFFFFF" d="M392.023,309.691c0.057-0.61,0.149-1.184,1-1
				C392.967,309.302,392.874,309.875,392.023,309.691z"/>
			<path fill-rule="evenodd" clip-rule="evenodd" fill="#FFFFFF" d="M407.023,308.691c-1.066,2.267-3.033,3.634-6,4
				C402.47,310.804,403.258,308.259,407.023,308.691z"/>
			<path fill-rule="evenodd" clip-rule="evenodd" fill="#FFFFFF" d="M323.023,309.691
				C324.232,309.59,323.639,311.146,323.023,309.691L323.023,309.691z"/>
			<path fill-rule="evenodd" clip-rule="evenodd" fill="#FFFFFF" d="M392.023,309.691c-0.41,1.257-1.289,2.044-3,2
				C389.434,310.435,390.312,309.647,392.023,309.691z"/>
			<path fill-rule="evenodd" clip-rule="evenodd" fill="#FFFFFF" d="M320.023,312.691
				C323.378,310.274,317.606,316.046,320.023,312.691L320.023,312.691z"/>
			<path fill-rule="evenodd" clip-rule="evenodd" fill="#FFFFFF" d="M389.023,311.691c-0.279,2.055-2.671,1.996-4,3
				C384.719,312.054,387.111,312.112,389.023,311.691z"/>
			<path fill-rule="evenodd" clip-rule="evenodd" fill="#FFFFFF" d="M82.023,316.691c-2.551-0.116-5.146-0.188-5-3
				C78.52,314.862,81.113,314.935,82.023,316.691z"/>
			<path fill-rule="evenodd" clip-rule="evenodd" fill="#FFFFFF" d="M383.023,315.691c0.221-0.779,0.838-1.162,2-1
				C384.803,315.471,384.186,315.854,383.023,315.691z"/>
			<path fill-rule="evenodd" clip-rule="evenodd" d="M204.023,325.691c-5.314-0.438-6.07-8.198-13-4
				c0.841,10.159,12.575,9.425,14,19c-1.092,11.433-22.484,9.832-22-2c4.772,1.287,12.568,9.614,17,2
				c-2.788-6.545-10.779-7.888-14-14C182.354,311.239,208.881,313.979,204.023,325.691z"/>
			<path fill-rule="evenodd" clip-rule="evenodd" fill="#FFFFFF" d="M383.023,315.691c-0.869,1.464-1.497,3.17-4,3
				C379.893,317.228,380.521,315.521,383.023,315.691z"/>
			<path fill-rule="evenodd" clip-rule="evenodd" fill="#FFFFFF" d="M72.023,317.691c-0.518-0.518,0.724-1.276,1-1
				C73.541,317.209,72.3,317.968,72.023,317.691z"/>
			<path fill-rule="evenodd" clip-rule="evenodd" fill="#FFFFFF" d="M82.023,316.691c0.776,0.224,1.973,0.027,2,1
				C83.247,317.468,82.051,317.664,82.023,316.691z"/>
			<path fill-rule="evenodd" clip-rule="evenodd" d="M301.023,342.691c-6.453,2.692-7.898-6.225-12-9
				c-9.676-1.504-5.024,10.178-8,13c-5.919-2.081-2.466-13.534-6-18c0.11-4.958-0.981-4.913,0-9c11.433-3.877,24.633-5.217,20,11
				C295.593,336.122,300.976,336.739,301.023,342.691z M279.023,323.691c0,1.667,0,3.333,0,5c2.812,3.372,12.318,1.782,13-3
				c0-1,0-2,0-3C289.3,319.14,281.886,321.497,279.023,323.691z"/>
			<path fill-rule="evenodd" clip-rule="evenodd" fill="#FFFFFF" d="M84.023,317.691C85.231,317.59,84.639,319.146,84.023,317.691
				L84.023,317.691z"/>
			<path fill-rule="evenodd" clip-rule="evenodd" fill="#FFFFFF" d="M86.023,319.691c-0.518-0.518,0.724-1.276,1-1
				C87.541,319.209,86.3,319.968,86.023,319.691z"/>
			<path fill-rule="evenodd" clip-rule="evenodd" fill="#FFFFFF" d="M379.023,318.691
				C378.74,322.628,374.618,318.506,379.023,318.691L379.023,318.691z"/>
			<path fill-rule="evenodd" clip-rule="evenodd" fill="#FFFFFF" d="M90.023,321.691c4.067-1.374,10.359,3.62,13,7
				C98.099,326.95,94.913,323.468,90.023,321.691z"/>
			<path fill-rule="evenodd" clip-rule="evenodd" fill="#FFFFFF" d="M99.023,321.691c0.027-0.973,1.224-0.776,2-1
				C100.996,321.664,99.8,321.468,99.023,321.691z"/>
			<path fill-rule="evenodd" clip-rule="evenodd" d="M236.023,323.691c0.229,5.956-5.498-0.226-8,3c-4.447,4.553,0.001,18.001-3,24
				c-8.547-2.243-0.76-14.628-3-23c-1.062-2.938-6.02-1.98-7-5C218.67,319.304,233.959,321.855,236.023,323.691z"/>
			<path fill-rule="evenodd" clip-rule="evenodd" fill="#FFFFFF" d="M292.023,322.691c0,1,0,2,0,3c-0.682,4.782-10.188,6.372-13,3
				c0-1.667,0-3.333,0-5C281.886,321.497,289.3,319.14,292.023,322.691z"/>
			<path fill-rule="evenodd" clip-rule="evenodd" d="M265.023,348.691c-2.897,2.397-4.123-3.281-5-6c-3.868,0.535-4.882-1.785-9-1
				c-6.735-0.068-2.859,10.474-10,10c-0.97-9.082,6.323-18.261,8-28c0.807-0.86,2.739-0.594,3-2c0.805,0.529,1.623,1.043,3,1
				C256.534,332.521,266.991,338.715,265.023,348.691z M249.023,335.691c1.334,1.427,5.666,1.427,7,0c-0.011-3.656-1.976-5.357-4-7
				C251.193,331.194,249.284,332.618,249.023,335.691z"/>
			<path fill-rule="evenodd" clip-rule="evenodd" fill="#FFFFFF" d="M252.023,328.691c2.024,1.643,3.989,3.344,4,7
				c-1.334,1.427-5.666,1.427-7,0C249.284,332.618,251.193,331.194,252.023,328.691z"/>
		</g>
	</g>
</g>
</svg>
